<?xml version="1.0" standalone="no"?>
<!DOCTYPE svg PUBLIC "-//W3C//DTD SVG 20010904//EN"
 "http://www.w3.org/TR/2001/REC-SVG-20010904/DTD/svg10.dtd">
<svg version="1.0" xmlns="http://www.w3.org/2000/svg"
 width="700.000000pt" height="700.000000pt" viewBox="0 0 700.000000 700.000000"
 preserveAspectRatio="xMidYMid meet">
<metadata>
Created by potrace 1.14, written by Peter Selinger 2001-2017
</metadata>
<g transform="translate(0.000000,700.000000) scale(0.100000,-0.100000)"
fill="#000000" stroke="none">
<path d="M3970 6724 c-83 -17 -167 -47 -255 -91 -283 -141 -526 -471 -601
-817 -19 -86 -22 -295 -5 -386 52 -282 218 -552 451 -730 332 -253 733 -323
1118 -194 269 89 525 322 646 586 82 179 111 321 103 518 -11 301 -129 557
-358 775 -176 168 -421 292 -669 339 -103 20 -339 20 -430 0z m369 -809 c136
-32 255 -126 309 -242 51 -112 30 -257 -50 -348 -171 -194 -559 -124 -680 123
-29 59 -33 76 -33 147 1 126 53 223 153 282 91 54 184 65 301 38z"/>
<path d="M3070 4664 c-384 -44 -689 -270 -878 -649 -78 -158 -178 -456 -216
-645 -20 -100 -38 -241 -33 -247 3 -2 178 -80 389 -173 210 -92 698 -306 1083
-475 385 -169 705 -309 712 -312 35 -14 206 385 278 650 56 209 82 456 65 635
-31 348 -138 590 -355 807 -184 185 -478 340 -735 389 -81 16 -252 27 -310 20z
m278 -779 c141 -33 295 -128 376 -232 109 -139 159 -331 120 -465 -4 -14 -64
12 -342 149 -185 91 -407 199 -492 241 -85 41 -157 76 -159 78 -10 9 31 77 71
120 47 51 108 90 171 109 57 18 178 18 255 0z"/>
<path d="M2163 2686 c-104 -20 -197 -52 -290 -101 -208 -109 -392 -308 -508
-550 -110 -230 -216 -592 -240 -820 l-6 -60 982 -430 c541 -237 1036 -453
1101 -482 l118 -52 52 102 c203 404 305 840 278 1182 -29 352 -137 595 -364
820 -182 180 -415 308 -686 375 -110 28 -333 36 -437 16z m382 -771 c116 -30
223 -92 310 -180 95 -94 145 -185 170 -309 15 -76 13 -177 -5 -206 -5 -9 -97
32 -326 145 -176 86 -399 195 -496 242 l-177 86 20 40 c12 22 42 61 69 87 110
111 254 142 435 95z"/>
</g>
</svg>
