<svg width="1080" height="1080" viewBox="0 0 1080 1080" fill="none" xmlns="http://www.w3.org/2000/svg">
<rect x="0.5" y="0.5" width="1079" height="1079" rx="99.5" fill="white"/>
<g clip-path="url(#clip0_1_4)">
<rect width="865" height="808.82" transform="translate(107 136)" fill="white"/>
<path fill-rule="evenodd" clip-rule="evenodd" d="M556.363 136.28C588.021 134.773 622.465 139.541 650.547 145.464C680.084 151.69 705.77 160.682 729.78 171.176C803.316 203.32 859.45 251.197 902.147 313.649C930.173 354.643 953.928 401.861 964.326 461.369C969.483 490.898 973.148 523.793 971.67 555.563C970.133 588.655 965.722 618.838 958.03 646.348C954.262 659.816 949.293 672.757 944.651 685.443C930.829 723.195 910.027 756.482 887.195 785.409C871.712 805.025 854.569 822.151 836.299 839.197C799.749 873.295 755.737 898.373 704.858 917.651C666.51 932.18 624.14 942.578 573.943 944.15C526.568 945.635 471.549 945.237 429.123 936.541C400.203 930.614 373.828 922.283 349.367 911.352C301.417 889.926 260.665 860.907 225.009 825.816C189.798 791.161 160.821 750.064 139.218 701.709C133.683 689.318 128.45 677.243 124.526 663.926C120.566 650.488 117.198 636.409 114.294 621.683C105.841 578.832 104.433 522.83 111.669 477.635C114.145 462.172 117.574 449.042 121.377 434.867C125.198 420.627 128.658 407.163 133.709 394.724C148.738 357.709 168.615 324.512 191.952 295.544C207.56 276.17 223.868 256.925 242.061 240.968C260.79 224.54 280.359 208.318 302.403 196.363C325.23 183.981 347.574 172.453 373.5 162.517C398.844 152.801 426.763 145.234 456.929 141.002C487.146 136.763 519.983 136.284 555.838 136.277C556.011 136.28 556.188 136.288 556.363 136.28ZM716.661 192.43C724.531 196.986 732.347 201.07 739.748 206.074C768.891 225.782 796.217 247.827 818.978 273.506C876.339 338.219 918.637 418.501 921.559 536.937C922.678 582.29 914.466 626.11 901.883 662.355C889.006 699.443 873.582 732.117 853.611 761.011C813.435 819.135 761.326 864.221 696.985 897.975C754.995 878.999 799.88 845.908 838.917 808.503C865.151 783.368 887.16 754.161 905.557 720.868C914.79 704.156 921.657 685.78 929.169 667.342C944.198 630.443 951.467 584.434 951.469 536.415C951.469 486.797 942.372 443.242 928.38 405.748C914.477 368.483 895.084 335.332 872.759 307.092C827.131 249.373 769.21 204.727 692.521 178.787C692.361 178.802 692.211 178.826 692.259 179.049C700.613 183.299 708.755 187.855 716.661 192.43ZM341.23 876.197C311.516 857.088 284.767 834.609 261.737 808.765C250.135 795.747 238.927 782.152 229.204 767.573C209.817 738.497 191.427 707.492 178.832 671.014C166.277 634.653 157.254 593.865 157.32 546.384C157.418 475.024 173.945 415.999 196.936 366.652C204.636 350.126 214.606 335.286 224.482 320.473C253.695 276.66 291.42 239.708 333.884 209.486C348.311 199.217 364.267 191.597 379.534 182.459C370.871 184.502 359.711 189.594 351.462 193.741C342.284 198.355 333.484 201.905 325.49 206.334C275.591 233.997 234.654 270.663 202.445 314.701C191.578 329.558 180.864 344.744 172.011 361.143C145.095 411.006 126.886 471.658 126.886 547.434C126.886 597.382 137.523 638.962 151.023 676.788C157.63 695.3 166.428 712.642 176.21 728.74C186.078 744.977 196.092 760.771 207.431 774.657C254.389 832.164 309.311 877.315 387.669 902.699C372.369 893.174 356.136 885.786 341.23 876.197ZM833.933 253.303C834.274 252.953 834.278 252.326 833.67 252.253C833.331 252.603 833.325 253.231 833.933 253.303ZM498.118 368.227C466.709 378.642 441.033 398.335 422.035 420.441C396.496 450.158 375.569 491.222 376.647 545.859C377.189 573.266 384.019 595.549 392.651 615.391C399.315 630.707 407.693 643.371 417.313 655.011C420.618 659.009 424.053 662.266 427.808 666.03C448.599 686.878 474.567 705.567 507.301 714.832C517.77 717.795 531.13 721.686 542.981 720.079C590.136 713.688 627.007 689.353 653.957 659.993C680.957 630.578 700.429 589.394 699.607 535.363C698.782 481.228 676.64 442.116 648.973 414.667C627.749 393.611 602.31 376.099 569.478 365.865C560.507 363.07 543.34 358.466 532.748 359.568C520.558 360.837 508.664 364.73 498.118 368.227ZM688.327 429.887C706.461 458.449 720.391 492.901 720.857 537.465C721.321 581.708 708.162 619.012 689.901 647.139C673.613 672.224 652.852 692.437 628.772 709.062C625.562 711.277 622.253 713.508 619.329 716.146C659.258 704.123 688.062 681.786 711.414 652.911C733.865 625.154 751.929 585.142 750.768 536.677C749.552 486.042 733.222 451.805 709.315 422.803C686.411 395.015 656.048 371.173 614.868 361.405C614.708 361.421 614.557 361.445 614.605 361.668C644.148 378.959 669.985 400.993 688.327 429.887ZM388.454 651.074C370.738 623.789 355.515 587.83 355.659 543.497C355.808 498.155 368.693 463.01 386.355 433.82C404.119 404.459 428.547 382.29 456.665 363.763C456.402 363.763 456.14 363.763 455.877 363.763C436.073 369.756 418.477 378.439 403.669 389.74C374.117 412.294 351.447 439.775 337.031 477.9C329.976 496.556 325.269 520.109 326.013 543.757C327.564 593.147 343.959 628.673 367.202 657.369C378.541 671.369 392.592 684.141 407.605 694.364C422.916 704.79 440.287 713.692 460.862 718.504C432.401 701.448 407.013 679.653 388.454 651.074Z" fill="black"/>
</g>
<rect x="0.5" y="0.5" width="1079" height="1079" rx="99.5" stroke="white"/>
<defs>
<clipPath id="clip0_1_4">
<rect width="865" height="808.82" fill="white" transform="translate(107 136)"/>
</clipPath>
</defs>
</svg>
