<svg width="219" height="219" viewBox="0 0 219 219" fill="none" xmlns="http://www.w3.org/2000/svg">
<g clip-path="url(#clip0)">
<rect width="219" height="219" fill="#6FD1F8"/>
<path d="M147.061 -18.6362L-27.726 78.1667L67.2044 249.573L241.991 152.77L147.061 -18.6362Z" fill="#6FD1F8"/>
<g clip-path="url(#clip1)">
<path fill-rule="evenodd" clip-rule="evenodd" d="M103.684 -57.3779C72.9212 -51.2486 42.2926 -33.2491 23.5411 -10.2807L23.0306 -9.65517L25.5989 -10.0625C30.9215 -10.9084 35.4489 -12.4501 39.9824 -14.9634C41.5081 -15.8097 43.825 -17.0946 45.1325 -17.8202C48.6198 -19.7561 50.4092 -20.3726 54.4069 -21.0164C58.9466 -21.7468 59.2722 -21.7141 66.9341 -19.7563C75.6227 -17.5368 88.8073 -16.5239 100.296 -17.1943C103.06 -17.3557 122.581 -20.6429 136.639 -23.3146C148.79 -25.623 153.416 -25.7556 162.333 -24.0501C169.913 -22.6004 174.424 -22.7452 182.909 -24.7084C197.003 -27.9688 206.023 -27.1509 210.576 -22.1975C215.031 -17.3498 212.991 -10.825 204.198 -1.79564C195.192 7.45209 188.222 10.6363 176.35 10.9266C172.178 11.0289 170.033 11.3749 166.858 12.4583C163.026 13.7662 160.642 14.4851 152.737 16.7153C137.563 20.9966 137.863 20.7691 139.784 26.5368C142.35 34.2443 142.094 38.5527 138.771 43.5187C135.337 48.6518 131.7 50.8555 122.183 53.5677C113.914 55.9235 110.062 57.8372 107.713 60.7548C106.853 61.8223 106.838 61.7394 108.421 64.6697C113.771 74.5721 110.361 82.7355 96.3824 93.4922C89.299 98.9444 88.4885 100.548 88.8879 108.337C89.6455 123.139 81.4415 128.982 64.7437 125.532C58.7821 124.301 54.9968 121.073 49.9476 112.921C47.8794 109.581 45.828 106.626 45.6027 106.663C45.3852 106.698 44.7503 107.987 43.1972 111.55C42.4509 113.261 41.2487 115.64 40.525 116.835C38.437 120.287 37.9117 122.367 37.3112 129.584C36.5493 138.74 35.1308 141.61 30.8631 142.629C26.3432 143.708 23.9472 142.011 16.6324 132.556C14.9727 130.41 12.7732 127.739 11.7458 126.621C7.76888 122.292 6.38715 119.879 5.10938 115.036C4.66249 113.34 4.20172 111.824 4.08432 111.667C3.38227 110.716 -3.84381 109.466 -8.40367 109.507L-9.33061 109.515L-8.98412 112.002C-5.09479 139.927 11.6005 172.607 33.3964 194.962C102.495 265.833 216.556 255.608 266.385 174.078C319.978 86.3895 269.468 -31.5962 167.786 -56.2427C149.375 -60.7056 124.151 -61.6036 108.547 -58.3529C108.213 -58.2834 106.025 -57.844 103.684 -57.3779ZM109.209 101.874C115.105 102.765 126.211 109.6 129.77 114.528C134.096 120.522 131.974 125.678 122.989 131.009C116.415 134.909 116.307 135.041 113.514 142.656C109.369 153.95 107.276 156.982 103.155 157.649C100.226 158.123 98.123 157.054 95.1712 153.591C92.7146 150.709 92.0252 150.163 88.5317 148.34C82.859 145.378 81.3263 143.831 80.6636 140.403C79.7156 135.498 84.0846 127.911 91.2049 122.096C94.3114 119.56 95.9832 116.918 98.3628 110.789C101.171 103.556 104.147 101.11 109.209 101.874ZM151.816 134.776C158.64 135.809 165.315 140.734 169.718 147.984C173.179 153.682 174.5 154.858 180.433 157.524C190.541 162.066 195.803 168.896 197.557 179.752C201.15 201.994 180.221 217.5 159.619 207.862C158.389 207.287 156.407 206.359 155.216 205.801C154.022 205.243 152.522 204.704 151.879 204.604C151.236 204.503 149.357 204.118 147.7 203.75C142.482 202.588 140.682 202.907 132.475 206.449C125.43 209.489 120.608 210.232 115.36 209.086C108.974 207.691 105.927 203.997 100.887 191.538C95.2848 177.694 99.1507 166.396 112.841 156.598C120.81 150.895 129.578 148.31 141.088 148.268L144.105 148.257L143.451 146.854C139.92 139.279 143.872 133.572 151.816 134.776Z" fill="#6FD1F8"/>
<path fill-rule="evenodd" clip-rule="evenodd" d="M100.654 -68.469C16.8013 -51.1358 -36.1422 30.4091 -19.4729 116.55C-0.669825 213.716 97.8153 275.03 189.962 246.941C273.72 221.408 318.907 131.331 291.082 45.3657C264.873 -35.6091 181.831 -85.2501 100.654 -68.469ZM116.642 -59.4829C205.841 -69.1493 285.662 1.81296 288.049 92.9019C289.652 154.093 253.872 209.53 198.356 231.87C114.403 265.654 18.2527 215.561 -6.16216 125.32C-7.04057 122.072 -9.56337 109.728 -9.39867 109.483C-9.0988 109.037 -0.371884 109.971 2.1364 110.717C4.40148 111.391 4.33323 111.299 5.15106 114.815C6.24132 119.5 7.60678 121.944 11.5887 126.337C12.8602 127.74 15.2445 130.631 16.8871 132.763C23.4155 141.231 25.6285 142.968 29.6817 142.805C34.3654 142.615 36.4031 139.154 37.1682 130.09C37.8289 122.264 38.3478 120.196 40.5549 116.608C41.2522 115.474 42.3466 113.332 42.988 111.846C44.7739 107.709 45.4718 106.416 45.7755 106.686C46.3123 107.164 47.5882 109.019 49.6127 112.269C56.0375 122.585 59.2472 124.89 68.8821 126.11C82.7662 127.867 89.4232 121.97 88.801 108.462C88.4443 100.703 89.3147 98.8339 95.49 94.0983C110.497 82.5902 113.82 74.7277 108.109 64.2504C106.606 61.4933 106.602 61.6769 108.176 60.1298C111.157 57.2015 114.071 55.7943 121.565 53.6667C130.227 51.2071 133.715 49.4109 137.114 45.6592C141.518 40.799 142.529 35.0872 140.212 28.1641C137.685 20.6087 137.368 20.9469 150.38 17.3033C157.901 15.197 163.289 13.59 166.899 12.3765C170.671 11.1093 171.248 11.018 176.422 10.8656C188.664 10.5071 196.175 6.84264 205.552 -3.34729C211.202 -9.48778 213.306 -13.874 212.541 -17.9196C210.948 -26.3438 199.754 -28.7409 182.107 -24.4368C175.11 -22.7298 169.499 -22.592 162.473 -23.9536C152.9 -25.8079 149.81 -25.6358 131.055 -22.2044C111.046 -18.5431 101.973 -17.0914 98.3369 -16.9709C86.6406 -16.5826 74.9372 -17.6058 66.6831 -19.7373C59.6741 -21.5479 58.6083 -21.652 54.3149 -20.9388C49.8205 -20.193 48.5343 -19.6549 40.5825 -15.1983C35.5197 -12.3598 31.7548 -11.0442 26.15 -10.1527L23.028 -9.65682L23.703 -10.5238C24.5787 -11.6495 29.1287 -16.5766 31.2743 -18.722C49.7876 -37.2339 73.8072 -50.5705 99.2306 -56.4547C105.755 -57.9649 110.92 -58.8622 116.642 -59.4829ZM63.5206 -9.14115C74.1062 -6.39476 86.5065 -5.29922 100.588 -5.86681C103.535 -5.98591 116.143 -8.03821 134.462 -11.3819C151.302 -14.4552 152.617 -14.5292 161.195 -12.8883C170.054 -11.1949 174.172 -11.413 189.553 -14.3943C195.26 -15.5007 196.919 -15.6468 199.798 -15.2993L200.66 -15.1961L199.655 -13.8594C196.348 -9.45931 189.875 -3.86844 186.127 -2.17413C183.575 -1.01999 180.308 -0.45631 175.247 -0.297591C170.825 -0.157781 167.72 0.230579 165.673 0.901047C159.45 2.93921 156.681 3.78209 149.769 5.73954C134.958 9.93537 132.761 10.951 130.16 14.807C127.16 19.2529 126.949 22.9864 129.299 30.0163C130.799 34.5053 130.788 35.1837 129.175 37.4105C128.127 38.8602 126.599 39.9905 124.557 40.8319C122.605 41.6362 122.449 41.6871 117.814 43.0253C107.15 46.1018 101.571 49.432 97.9135 54.9026C94.978 59.2919 95.0405 62.9976 98.1476 68.7658C99.9261 72.0663 100.017 72.4073 99.478 73.7521C98.3447 76.5768 94.6259 80.4677 88.6403 85.0924C80.1063 91.6862 77.2685 97.2287 77.6754 106.507C77.8977 111.563 77.8696 112.196 77.3764 113.351C76.4893 115.426 74.6148 115.712 68.1798 114.754C64.0157 114.135 63.2279 113.441 58.9628 106.631C53.6658 98.173 50.798 95.6142 45.8928 94.9654C40.411 94.2402 37.1728 97.1567 33.0213 106.557C32.2089 108.396 31.2333 110.338 30.8542 110.87C28.7165 113.872 27.2412 118.528 26.5382 124.5L26.2452 126.983L24.1047 124.251C22.9272 122.748 21.0027 120.469 19.8274 119.187C16.8928 115.984 16.574 115.407 15.5991 111.517C13.1726 101.832 7.98226 98.9599 -8.39869 98.236L-10.8117 98.1298L-10.9688 96.6058C-12.8357 78.4346 -9.56203 54.1097 -2.66574 34.8958C1.48432 23.3348 9.46948 7.88367 14.8319 1.03815L15.3789 0.339917L16.1233 0.782923C18.0176 1.91175 20.2118 1.9577 26.9841 1.01199C35.6581 -0.19926 39.6778 -1.62903 48.4525 -6.62178C52.9435 -9.1776 53.647 -9.45285 56.7685 -9.87876L59.3317 -10.2287L63.5206 -9.14115ZM103.813 102.855C101.545 104.202 100.196 106.179 98.4951 110.647C96.1459 116.82 94.5544 119.313 91.0338 122.337C83.4552 128.845 79.2943 136.591 80.8254 141.34C81.6713 143.961 83.6284 145.738 88.3679 148.191C91.7601 149.945 92.9337 150.852 95.0416 153.348C98.1227 156.995 100.171 158.072 103.116 157.596C107.357 156.909 109.386 153.814 114.1 140.843C116.116 135.3 116.668 134.675 122.736 131.068C127.45 128.266 129.516 126.512 130.666 124.333C133.665 118.654 130.053 112.481 120.367 106.738C112.369 101.994 107.274 100.8 103.813 102.855ZM114.101 115.792C116.742 117.284 119.775 119.537 119.472 119.783C119.337 119.892 117.952 120.742 116.395 121.67C108.065 126.637 106.773 128.262 103.023 138.499C102.128 140.941 101.311 143.076 101.208 143.243C101.058 143.485 100.683 143.265 99.4023 142.187C98.0052 141.011 94.798 139.012 92.9524 138.166L92.3794 137.904L93.1082 136.777C94.2819 134.961 96.1996 132.855 98.4599 130.901C101.975 127.86 104.204 125.054 106.192 121.171C107.07 119.454 107.467 118.529 108.928 114.777L109.443 113.455L110.886 114.123C111.679 114.49 113.127 115.241 114.101 115.792ZM145.595 135.693C142.106 137.496 141.219 141.838 143.382 146.537C144.321 148.576 144.66 148.357 140.579 148.333C117.295 148.192 96.6104 164.796 98.5842 182.041C98.684 182.918 98.785 183.911 98.8079 184.249C99.0229 187.406 103.954 199.279 106.659 203.151C111.973 210.758 120.202 211.561 133.811 205.799C140.815 202.834 142.926 202.485 147.273 203.575C148.428 203.865 150.19 204.242 151.187 204.414C153.271 204.771 154.081 205.083 157.935 207.01C168.764 212.423 179.035 212.065 187.156 205.99C199.388 196.841 201.457 179.06 191.797 166.096C188.905 162.215 186.309 160.265 180.608 157.692C176.346 155.768 174.571 154.637 172.926 152.795C171.798 151.53 171.328 150.829 168.832 146.7C163.563 137.979 151.882 132.446 145.595 135.693ZM158.202 150.511C158.583 150.951 159.562 152.432 160.377 153.801C164.76 161.164 167.975 164.045 175.734 167.559C181.007 169.948 182.416 171.111 184.403 174.716C188.429 182.02 187.423 190.3 181.859 195.659C176.97 200.367 170.378 200.914 162.99 197.227C157.632 194.554 156.017 193.943 152.998 193.443C151.922 193.265 150.071 192.877 148.887 192.58C145.275 191.674 143.546 191.618 139.407 192.277C135.515 192.896 134.846 193.102 129.771 195.243C122.929 198.13 120.47 198.74 117.824 198.204C116.059 197.848 115.696 197.437 113.933 193.811C107.634 180.856 108.021 175.951 115.91 168.762C122.958 162.341 130.996 159.476 141.814 159.534C152.157 159.588 156.632 156.493 155.958 149.751L155.813 148.302L156.66 149.007C157.126 149.394 157.82 150.071 158.202 150.511Z" fill="#6FD1F8"/>
<path fill-rule="evenodd" clip-rule="evenodd" d="M53.2006 -9.05262C52.5239 -8.77451 51.2293 -8.12393 50.3227 -7.60813C40.2454 -1.86893 36.4487 -0.395037 28.3569 0.919434C21.5268 2.02974 17.8563 1.97693 16.0479 0.743722L15.3635 0.276622L12.9643 3.87791C-2.69455 27.3762 -11.2233 55.7521 -11.3188 84.6687C-11.3339 89.1838 -11.1064 94.912 -10.8402 96.7073L-10.6414 98.0437L-6.48923 98.2941C8.12581 99.1783 13.8722 102.491 15.5379 110.992C16.2636 114.698 17.0487 116.089 20.6078 119.981C21.6211 121.089 23.3092 123.111 24.3588 124.474L26.2683 126.951L26.5 124.706C27.0913 118.985 28.3708 114.828 30.6497 111.221C31.2786 110.225 32.1381 108.588 32.5601 107.583C37.2264 96.4622 41.2245 93.287 47.9007 95.3992C52.0385 96.7089 54.3021 98.9902 59.0403 106.63C63.5934 113.971 64.8432 114.797 71.9386 115.153C76.9589 115.405 78.0511 114.24 77.7494 108.953C77.0914 97.3817 79.6412 91.784 88.6658 84.9947C94.1733 80.8524 97.9096 77.0389 99.2598 74.1832C100.035 72.5432 99.974 72.2385 98.2353 69.0147C95.0109 63.0333 94.9331 59.3649 97.9392 54.9098C101.715 49.3142 107.037 46.08 117.383 43.095C130.009 39.4522 131.861 37.3532 129.169 29.7361C127.046 23.7306 127.251 19.302 129.839 15.2137C132.452 11.0884 135.001 9.86255 149.478 5.77219C157.14 3.60711 160.284 2.65725 164.59 1.20265C167.318 0.282169 170.929 -0.236247 175.548 -0.367739C184.39 -0.62027 188.06 -2.19184 194.792 -8.6041C196.637 -10.3615 199.974 -14.0785 200.395 -14.8449C201.07 -16.0737 194.069 -15.3717 182.049 -13.0063C173.52 -11.328 169.389 -11.3342 160.045 -13.0403C152.724 -14.3769 149.985 -14.2422 137.713 -11.9397C121.484 -8.89531 105.472 -6.18725 102.48 -5.97858C88.7363 -5.02459 74.886 -6.16004 63.0206 -9.21447L59.1451 -10.2129L56.7879 -9.88497C55.2983 -9.67788 53.9775 -9.37162 53.2006 -9.05262ZM108.653 115.685C105.968 122.788 103.241 126.884 98.4745 130.974C95.8125 133.259 92.0547 137.64 92.5294 137.906C92.5861 137.938 93.4741 138.398 94.5029 138.927C96.4925 139.953 98.7594 141.478 100.23 142.781L101.126 143.574L102.753 139.159C106.827 128.111 107.969 126.63 116.133 121.801C117.847 120.787 119.322 119.863 119.411 119.747C119.82 119.215 110.629 113.49 109.63 113.653C109.508 113.674 109.069 114.588 108.653 115.685ZM156.007 149.785C156.657 156.303 152.296 159.558 142.903 159.563C130.346 159.569 122.697 162.32 115.154 169.54C110.172 174.31 108.742 178.482 110.152 184.133C110.958 187.364 114.281 194.956 115.804 197.046C117.215 198.985 121.562 198.642 127.554 196.117C135.111 192.935 134.888 193.007 139.34 192.298C143.898 191.572 144.996 191.593 148.707 192.49C149.759 192.744 151.562 193.118 152.713 193.32C155.762 193.857 157.23 194.377 161.502 196.437C167.571 199.361 170.423 200.011 174.383 199.37C185.827 197.518 190.601 183.264 183.24 172.923C181.821 170.931 179.966 169.478 177.35 168.312C172.981 166.366 172.165 165.962 170.392 164.872C166.57 162.524 163.746 159.419 160.417 153.904C158.657 150.987 157.67 149.746 156.481 148.958L155.885 148.563L156.007 149.785Z" fill="#6DD727"/>
<path d="M87.2477 139.974L87.2482 139.974C91.8811 141.891 95.7549 144.19 98.9075 146.847C102.061 149.519 104.602 152.475 106.554 155.712L106.556 155.716C108.499 158.924 109.888 162.371 110.726 166.067C111.574 169.809 111.951 173.688 111.851 177.712C111.716 181.741 111.155 185.881 110.161 190.133C109.142 194.352 107.756 198.566 105.999 202.773C105.343 204.345 104.667 205.868 103.974 207.342C103.571 208.149 103.154 208.964 102.722 209.784L37.6688 181.26C38.0702 177.745 38.7577 174.262 39.7323 170.808L39.7348 170.799L39.7373 170.79C40.8702 166.659 42.2406 162.67 43.8476 158.822L43.8477 158.822C45.8006 154.145 48.2805 150.189 51.2685 146.919C54.2602 143.644 57.611 141.186 61.323 139.503C65.0158 137.83 69.0397 136.992 73.4273 137.013L73.4365 137.013L73.4456 137.013C77.8039 137.002 82.3984 137.966 87.2477 139.974ZM97.2695 174.466C96.8568 172.073 96.0744 169.828 94.9183 167.745L94.9183 167.745C93.75 165.628 92.2654 163.759 90.4701 162.151C88.6702 160.507 86.6631 159.181 84.4557 158.176L84.4148 158.158L84.3733 158.14L83.6715 157.851C81.6391 156.968 79.5559 156.371 77.4263 156.07C75.2352 155.725 73.0918 155.805 71.0223 156.343C68.9046 156.839 66.9855 157.806 65.2853 159.214C63.471 160.673 62.056 162.626 60.9877 164.964L59.9777 167.175L62.1593 168.247L93.3766 183.584L96.1504 184.946L96.9036 181.949C97.5309 179.453 97.6628 176.964 97.2754 174.503L97.2726 174.485L97.2695 174.466ZM167.065 39.6851C167.538 42.4803 167.627 45.3685 167.322 48.3569C166.988 51.2938 166.205 54.2535 164.957 57.2412C163.75 60.1316 162.235 62.7196 160.416 65.0168C158.59 67.3078 156.548 69.3112 154.289 71.0332C151.998 72.7394 149.541 74.1313 146.915 75.2123C144.264 76.2465 141.53 76.9469 138.709 77.3149C135.862 77.635 132.961 77.6194 130.001 77.2634C127.088 76.8774 124.197 76.0945 121.323 74.9051L121.323 74.905C118.51 73.7406 115.909 72.268 113.515 70.4872L113.51 70.483C111.072 68.6802 108.928 66.6622 107.069 64.4298C105.219 62.1565 103.673 59.7103 102.425 57.0881C101.183 54.4748 100.302 51.7737 99.7795 48.9805C99.2736 46.1658 99.1581 43.3054 99.4358 40.3928C99.7098 37.5195 100.439 34.6492 101.639 31.7758C103.618 27.0379 106.131 23.0923 109.155 19.8964L109.16 19.8914C112.208 16.6525 115.604 14.2852 119.352 12.7457L119.365 12.74L119.379 12.7342C123.108 11.1502 127.174 10.3997 131.608 10.5107L131.621 10.5111L131.633 10.5113C136.019 10.5766 140.597 11.5727 145.385 13.5541C148.343 14.7788 151.05 16.2974 153.511 18.107C155.943 19.9061 158.076 21.9367 159.919 24.1992L159.927 24.2092L159.936 24.219C161.79 26.448 163.332 28.8837 164.562 31.5309L164.563 31.5325C165.766 34.1171 166.599 36.8272 167.062 39.6694L167.063 39.6772L167.065 39.6851ZM136.41 104.567C137.258 108.309 137.635 112.189 137.535 116.212C137.4 120.242 136.839 124.381 135.845 128.633C134.826 132.853 133.44 137.067 131.683 141.274C131.027 142.846 130.351 144.368 129.658 145.843C129.255 146.65 128.838 147.464 128.406 148.284L63.3528 119.76C63.7541 116.245 64.4416 112.762 65.4162 109.309L65.4188 109.3L65.4212 109.291C66.5542 105.16 67.9246 101.17 69.5316 97.3223C71.4846 92.646 73.9646 88.6897 76.9524 85.4197L75.1636 83.7852L76.9524 85.4197C79.9443 82.1452 83.2951 79.6856 87.0069 78.004C90.6997 76.3309 94.7237 75.4928 99.1116 75.5134L99.1207 75.5135L99.1298 75.5134C103.488 75.5022 108.082 76.467 112.932 78.4744C117.564 80.3918 121.438 82.6904 124.59 85.3464C127.744 88.0189 130.286 90.9753 132.238 94.2126L132.24 94.2168C134.183 97.4247 135.572 100.871 136.41 104.567ZM86.6716 103.465L85.6618 105.676L87.8432 106.747L119.061 122.085L121.834 123.448L122.588 120.45C123.215 117.954 123.347 115.464 122.959 113.003L122.957 112.985L122.953 112.967C122.541 110.574 121.759 108.33 120.604 106.248C119.435 104.13 117.95 102.261 116.155 100.652C114.355 99.0085 112.347 97.6813 110.139 96.677L110.1 96.6592L110.06 96.6427L109.356 96.3514C107.324 95.4681 105.24 94.8715 103.111 94.5713C100.918 94.2255 98.775 94.3062 96.7063 94.844C94.5886 95.3403 92.6696 96.307 90.9693 97.7145C89.1549 99.1727 87.7399 101.126 86.6716 103.465ZM120.048 38.6533L120.048 38.6534C119.256 40.5494 118.858 42.4727 118.929 44.3996C118.998 46.2516 119.431 48.0216 120.227 49.688L120.229 49.6924C121.01 51.3197 122.121 52.7571 123.52 54.0071C124.889 55.2465 126.466 56.227 128.229 56.9567C129.9 57.6484 131.661 58.0979 133.502 58.3109C135.387 58.529 137.237 58.4433 139.041 58.0407L138.496 55.6008L139.041 58.0407C140.889 57.6281 142.581 56.8652 144.092 55.7535L144.105 55.7444L144.117 55.7351C145.754 54.4997 146.967 52.8483 147.79 50.8777C148.589 48.963 148.97 47.013 148.854 45.0547L148.853 45.0411L148.852 45.0274C148.719 43.1259 148.228 41.3338 147.365 39.679L147.356 39.6618L147.346 39.6447C146.468 38.0217 145.305 36.5841 143.882 35.3334C142.459 34.0832 140.858 33.0915 139.091 32.3602C137.383 31.6532 135.615 31.2218 133.796 31.0731C131.948 30.8753 130.151 30.9936 128.428 31.4562C126.638 31.9132 125.013 32.7397 123.575 33.9172C122.009 35.131 120.846 36.7421 120.048 38.6533Z" fill="black" stroke="black" stroke-width="5"/>
</g>
</g>
<defs>
<clipPath id="clip0">
<rect width="219" height="219" fill="white"/>
</clipPath>
<clipPath id="clip1">
<rect width="378.285" height="409.247" fill="white" transform="matrix(0.987161 -0.159731 0.0941302 0.99556 -79.4279 -58.5763)"/>
</clipPath>
</defs>
</svg>
