<svg width="962" height="160" viewBox="0 0 962 160" fill="none" xmlns="http://www.w3.org/2000/svg">
<path d="M570.118 49.4369V66.5251L590.412 83.6133L570.118 100.702V117.79L607.501 83.6133L570.118 49.4369Z" fill="white"/>
<path d="M486.155 49.4369V66.5251L465.86 83.6133L486.155 100.702V117.79L448.772 83.6133L486.155 49.4369Z" fill="white"/>
<path d="M2.99997 156.493H12.6448L67.2453 9.28381H57.6005L2.99997 156.493Z" fill="#F884D9"/>
<path d="M12.6448 156.493V158.362H13.9451L14.3973 157.143L12.6448 156.493ZM2.99997 156.493L1.24748 155.843L0.313112 158.362H2.99997V156.493ZM57.6005 9.28381V7.41466H56.3002L55.848 8.63381L57.6005 9.28381ZM67.2453 9.28381L68.9978 9.93382L69.9322 7.41466H67.2453V9.28381ZM12.6448 154.624H2.99997V158.362H12.6448V154.624ZM65.4928 8.63381L10.8923 155.843L14.3973 157.143L68.9978 9.93382L65.4928 8.63381ZM57.6005 11.153H67.2453V7.41466H57.6005V11.153ZM4.75246 157.143L59.353 9.93382L55.848 8.63381L1.24748 155.843L4.75246 157.143Z" fill="#F884D9"/>
<path d="M22.2895 156.493H56.6072C67.3735 156.493 78.2145 154.881 89.1301 151.656C100.046 148.432 110.337 143.665 120.004 137.356C129.821 131.047 138.513 123.336 146.08 114.223C153.848 104.97 159.89 94.5249 164.206 82.8884C168.522 71.2518 170.228 60.807 169.324 51.5538C168.569 42.3007 165.597 34.5897 160.409 28.4209C155.421 22.1119 148.666 17.3452 140.143 14.1206C131.619 10.896 121.974 9.28369 111.208 9.28369H76.89L73.458 18.5368H107.776C127.364 18.5368 141.908 24.0747 151.408 35.1505C160.699 46.787 161.601 62.6997 154.113 82.8884C146.625 103.077 133.919 118.99 115.996 130.626C98.2801 141.702 79.628 147.24 60.0392 147.24H25.7215L22.2895 156.493Z" fill="#41B6E6" stroke="#41B6E6" stroke-width="3.73831"/>
<path d="M165.679 156.914H175.324L229.924 9.70496H220.28L165.679 156.914Z" fill="#41B6E6"/>
<path d="M274.24 156.914H285.903L264.765 92.3525C272.704 91.5113 280.486 89.4784 288.111 86.2538C295.887 83.0293 302.785 78.5429 308.804 72.7947C314.974 67.0465 319.645 59.8963 322.817 51.3442C326.509 41.39 327.155 33.3987 324.755 27.3701C322.408 21.2013 317.717 16.7149 310.682 13.9109C303.797 11.1069 295.42 9.70496 285.55 9.70496H239.569L236.215 18.7478H282.196C289.673 18.7478 296.21 19.8694 301.808 22.1126C307.458 24.2156 311.343 27.6505 313.463 32.4173C315.732 37.184 315.411 43.493 312.499 51.3442C309.639 59.0552 305.28 65.3641 299.423 70.2711C293.767 75.0379 287.308 78.5429 280.046 80.7861C272.836 82.8891 265.493 83.9406 258.016 83.9406H212.035L208.681 92.9834H253.316L274.24 156.914Z" fill="#41B6E6"/>
<path d="M165.679 156.914H175.324L229.924 9.70496H220.28L165.679 156.914Z" stroke="#41B6E6" stroke-width="3.73831"/>
<path d="M274.24 156.914H285.903L264.765 92.3525C272.704 91.5113 280.486 89.4784 288.111 86.2538C295.887 83.0293 302.785 78.5429 308.804 72.7947C314.974 67.0465 319.645 59.8963 322.817 51.3442C326.509 41.39 327.155 33.3987 324.755 27.3701C322.408 21.2013 317.717 16.7149 310.682 13.9109C303.797 11.1069 295.42 9.70496 285.55 9.70496H239.569L236.215 18.7478H282.196C289.673 18.7478 296.21 19.8694 301.808 22.1126C307.458 24.2156 311.343 27.6505 313.463 32.4173C315.732 37.184 315.411 43.493 312.499 51.3442C309.639 59.0552 305.28 65.3641 299.423 70.2711C293.767 75.0379 287.308 78.5429 280.046 80.7861C272.836 82.8891 265.493 83.9406 258.016 83.9406H212.035L208.681 92.9834H253.316L274.24 156.914Z" stroke="#41B6E6" stroke-width="3.73831"/>
<path d="M326.81 132.73L372.206 10.3357H381.851L341.447 119.271L326.81 132.73Z" fill="#41B6E6"/>
<path d="M322.316 157.545H317.606L321.038 148.292L471.795 10.3357H483.01L322.316 157.545Z" fill="#41B6E6"/>
<path d="M432.671 157.545H421.232L399.811 96.7686L408.607 88.7772L432.671 157.545Z" fill="#41B6E6"/>
<path d="M326.81 132.73L372.206 10.3357H381.851L341.447 119.271L326.81 132.73Z" stroke="#41B6E6" stroke-width="3.73831"/>
<path d="M322.316 157.545H317.606L321.038 148.292L471.795 10.3357H483.01L322.316 157.545Z" stroke="#41B6E6" stroke-width="3.73831"/>
<path d="M432.671 157.545H421.232L399.811 96.7686L408.607 88.7772L432.671 157.545Z" stroke="#41B6E6" stroke-width="3.73831"/>
<path d="M495.458 157.3L546.125 5.51929L552.883 0L555.956 5.51929L505.288 157.3H495.458Z" fill="#F884D9"/>
<path d="M507.746 157.3L557.492 8.27893L560.565 13.7982L512.661 157.3H507.746Z" fill="#F884D9"/>
<path d="M488.085 157.3H493L542.746 8.27893L535.988 13.7982L488.085 157.3Z" fill="#F884D9"/>
<path d="M521.69 156.493H556.008C566.774 156.493 577.615 154.881 588.531 151.656C599.446 148.432 609.738 143.665 619.405 137.356C629.221 131.047 637.913 123.336 645.48 114.223C653.248 104.97 659.291 94.5251 663.607 82.8885C667.923 71.252 669.629 60.8071 668.724 51.5539C667.969 42.3008 664.998 34.5898 659.809 28.421C654.822 22.1121 648.067 17.3453 639.543 14.1207C631.019 10.8961 621.374 9.28381 610.608 9.28381H576.29L572.858 18.537H607.176C626.765 18.537 641.309 24.0748 650.808 35.1506C660.1 46.7872 661.001 62.6998 653.513 82.8885C646.025 103.077 633.319 118.99 615.396 130.626C597.68 141.702 579.028 147.24 559.44 147.24H525.122L521.69 156.493Z" fill="#41B6E6" stroke="#41B6E6" stroke-width="3.73831"/>
<path d="M735.751 157.966C716.578 156.844 702.424 150.255 693.289 138.197C683.334 124.318 682.595 105.952 691.071 83.099C695.387 71.4625 701.205 61.0176 708.525 51.7645C716.046 42.3711 724.592 34.4498 734.161 28.0007C752.241 15.9435 771.283 9.35413 791.287 8.23254L787.777 17.696C770.367 18.6774 753.98 24.3555 738.618 34.7302C721.091 46.507 708.532 62.6299 700.94 83.099C693.348 103.568 693.947 119.691 702.738 131.468C710.404 141.843 722.578 147.521 739.261 148.502L735.751 157.966Z" fill="#41B6E6"/>
<path d="M818.069 157.966H745.396L748.906 148.502C766.616 147.521 783.077 141.843 798.289 131.468C815.615 119.831 828.099 103.708 835.743 83.099C843.387 62.4897 842.863 46.3668 834.17 34.7302C826.653 24.3555 814.404 18.6774 797.422 17.696L800.932 8.23254C820.404 9.35413 834.558 15.9435 843.395 28.0007C848.18 34.4498 850.85 42.3711 851.403 51.7645C852.008 61.0176 850.153 71.4625 845.837 83.099C841.521 94.7356 835.628 105.18 828.159 114.434C815.762 129.715 800.806 141.212 783.292 148.923H821.423L818.069 157.966Z" fill="#41B6E6"/>
<path d="M735.751 157.966C716.578 156.844 702.424 150.255 693.289 138.197C683.334 124.318 682.595 105.952 691.071 83.099C695.387 71.4625 701.205 61.0176 708.525 51.7645C716.046 42.3711 724.592 34.4498 734.161 28.0007C752.241 15.9435 771.283 9.35413 791.287 8.23254L787.777 17.696C770.367 18.6774 753.98 24.3555 738.618 34.7302C721.091 46.507 708.532 62.6299 700.94 83.099C693.348 103.568 693.947 119.691 702.738 131.468C710.404 141.843 722.578 147.521 739.261 148.502L735.751 157.966Z" stroke="#41B6E6" stroke-width="3.73831"/>
<path d="M818.069 157.966H745.396L748.906 148.502C766.616 147.521 783.077 141.843 798.289 131.468C815.615 119.831 828.099 103.708 835.743 83.099C843.387 62.4897 842.863 46.3668 834.17 34.7302C826.653 24.3555 814.404 18.6774 797.422 17.696L800.932 8.23254C820.404 9.35413 834.558 15.9435 843.395 28.0007C848.18 34.4498 850.85 42.3711 851.403 51.7645C852.008 61.0176 850.153 71.4625 845.837 83.099C841.521 94.7356 835.628 105.18 828.159 114.434C815.762 129.715 800.806 141.212 783.292 148.923H821.423L818.069 157.966Z" stroke="#41B6E6" stroke-width="3.73831"/>
<path d="M847.534 157.545H857.179L911.78 10.3357H902.135L847.534 157.545Z" fill="#41B6E6"/>
<path d="M866.824 157.545H955.646L959 148.502H870.178L866.824 157.545Z" fill="#41B6E6"/>
<path d="M847.534 157.545H857.179L911.78 10.3357H902.135L847.534 157.545Z" stroke="#41B6E6" stroke-width="3.73831"/>
<path d="M866.824 157.545H955.646L959 148.502H870.178L866.824 157.545Z" stroke="#41B6E6" stroke-width="3.73831"/>
</svg>
